#!OML:ASF F:\VICON\USERDATA\INSTALL\rory3\rory3.ASF
:FULLY-SPECIFIED
:DEGREES
93
root 1.3482097840466274 17.862095971488728 54.072763540517236 -3.293117172007976 -2.2373150595362987 -2.245047164189801
lfemur -1.840058110234783 -1.1101651699106974 -17.56296547849446
ltibia 51.68503747592878
lfoot -6.3192613187523134 -0.15538901916463166
ltoes -4.666860933151525
rfemur -17.020430943413714 1.8133289609021974 25.566398518883265
rtibia 26.45894010837246
rfoot -12.599021753953188 -8.993557431501424
rtoes 2.3665476203620863
lowerback -1.0 -1.0475146252281111 1.2453569863312441
upperback 0.01872079602963571 -1.0654402235301506 1.9935590845678386
thorax -5.268842525817431 -0.5786779750642008 2.0872931784423767
lowerneck -16.601924304106632 -2.7639036013030647 -1.5270590361098515
upperneck 21.66667423289982 -3.3853796320477434 0.08227565786306057
head 9.609459457630127 -1.7138770994448258 -0.07925832620964392
lclavicle 4.1651415613828736e-16 -7.954921889608367e-16
lhumerus -28.409106771351457 1.932941356522691 80.87868258383752
lradius 22.06481947002867
lwrist 7.956036014753174
lhand -28.188516529634125 19.976740533815967
lfingers nan
lthumb -1.7670563499388112 49.84764191558841
rclavicle 3.248822777986065e-16 -8.640538121785312e-16
rhumerus -30.857102709640053 -21.899141909110032 -76.85004899494828
rradius 32.96107837735927
rwrist 2.2816601723751635
rhand -18.16599531540395 -1.0
rfingers nan
rthumb 8.445226560055247 -8.238797333486433
94
root 1.3418303521172588 17.858267652954737 53.6097560232942 -3.510537715711302 -2.130427008614181 -2.6588665302763927
lfemur -4.8242663970334645 -0.7144954270409329 -16.639468009058234
ltibia 54.669003219428944
lfoot -6.559075004946864 -0.25648268760165127
ltoes -5.3785169056367845
rfemur -14.505432591560417 1.895504316511656 26.05676715540762
rtibia 26.55995743421626
rfoot -13.346117980092739 -9.393113049266685
rtoes 2.116416377506608
lowerback -1.0 -0.7892304451803072 1.7750002448178794
upperback 0.01953317497239669 -0.6009111532020753 1.9919773640857295
thorax -5.322570043695045 -0.34831310570471447 1.7275877172908203
lowerneck -16.639597654463316 -2.823526617886214 -1.3708545608283655
upperneck 21.49731811122705 -3.4886256571940626 0.08104605306480817
head 9.563965001503576 -1.756407949892317 -0.13200139370040526
lclavicle 4.1768981902290956e-16 -7.958177811552949e-16
lhumerus -29.02644044913675 2.3116661600936577 81.02708105136452
lradius 21.716012699289223
lwrist 8.158822034245517
lhand -28.28917388128391 19.90405183577264
lfingers nan
lthumb -1.859365988026958 49.80980499477226
rclavicle 3.296165182114792e-16 -8.615272614593745e-16
rhumerus -30.352824777665937 -21.62224990899411 -76.76088160862133
rradius 32.99190164443053
rwrist 2.223920815132775
rhand -18.174848223314154 -1.0
rfingers nan
rthumb 8.43039656636189 -8.218500530915888
95
root 1.3371440138090942 17.856280315115505 53.48662047287058 -3.580576854112387 -1.9119421762669098 -3.4482146277975527
lfemur -7.812307297741085 -0.41849379361174144 -15.553129329634658
ltibia 56.32562223777062
lfoot -7.6033893121089235 0.18772267106826446
ltoes -6.307262596685528
rfemur -11.98503244267443 2.1022283910325146 26.789487838541245
rtibia 26.73543661125198
rfoot -13.760301284480827 -9.805246233239298
rtoes 1.762226229533583
lowerback -1.0 -0.5358042755593859 2.580574702681058
upperback 0.0037397456258096706 -0.10975157701660354 1.9980475355716942
thorax -5.38965704083823 -0.09151727929508874 1.3011303269535706
lowerneck -16.646591127913517 -2.896636699256195 -1.2337844226194656
upperneck 21.355394903086786 -3.6168054995839642 0.08351774425665337
head 9.532182167162977 -1.8080973511331924 -0.19096229853626018
lclavicle 4.19517411337084e-16 -7.960972121567654e-16
lhumerus -29.729599835874755 2.666104544817472 81.12891506575471
lradius 21.538165125753395
lwrist 8.377495444674835
lhand -28.41501288834811 19.835246568642024
lfingers nan
lthumb -2.022115487442419 49.681276890205886
rclavicle 3.355516292921224e-16 -8.584128567598302e-16
rhumerus -29.7017116705246 -21.165962138185478 -76.71897340740213
rradius 33.002383287716626
rwrist 2.1531757779037566
rhand -18.14851994172293 -1.0
rfingers nan
rthumb 8.404853426146044 -8.21132014138067
96
root 1.3369407770250317 17.864554036686865 53.628563729059984 -3.457708456144771 -1.7020733379937805 -4.2167265929549504
lfemur -10.71894276058535 -0.22534320986594425 -14.705425750864276
ltibia 56.57454583162466
lfoot -7.3809756564207305 1.251237263273174
ltoes -7.45189261599212
rfemur -9.191856641165018 2.4419555792260006 27.61775128897642
rtibia 26.78041656742378
rfoot -13.340385501185732 -9.944723344133505
rtoes 1.3360842384130056
lowerback -1.0 -0.2463924619869136 3.44588896007722
upperback -0.017335180242143394 0.4472936552855314 1.9806867296070143
thorax -5.443559078929173 0.19830946546614348 0.8174219303207145
lowerneck -16.60437624549688 -2.980463303839536 -1.1229850844491667
upperneck 21.257683700436896 -3.7639840438005243 0.08959347107826265
head 9.515057891327126 -1.8665528969766403 -0.2499012406608142
lclavicle 4.2185903072402846e-16 -7.962996925740416e-16
lhumerus -30.415012978650974 3.1105393149536082 81.20865664281412
lradius 21.50788944337635
lwrist 8.545424043749925
lhand -28.53593643032165 19.75929095903134
lfingers nan
lthumb -2.1290447438355793 49.6301373330058
rclavicle 3.425624901899683e-16 -8.547052721291139e-16
rhumerus -28.950564293875157 -20.559655544812784 -76.64481297454056
rradius 33.01418222620028
rwrist 2.0714685432543636
rhand -18.14510680785209 -1.0
rfingers nan
rthumb 8.393062786310642 -8.168358436601098
97
root 1.3230925181528854 17.862788811392637 52.958387130998716 -3.7628299556755773 -1.7321655867797776 -4.237065361297399
lfemur -13.030988895582528 -0.1236058041432988 -14.778850038583034
ltibia 55.43409276033496
lfoot -7.625947766677346 1.4955472291991105
ltoes -8.002315580153313
rfemur -6.934715965695564 2.747211768362383 27.75587892173129
rtibia 27.00556669312287
rfoot -12.06929818555223 -9.789312227973797
rtoes 1.0763971391675633
lowerback -1.0 0.003061497727184115 3.5110566430659587
upperback -0.016061407199882083 0.7500050526771492 1.8707608873292316
thorax -5.40737367532697 0.3687199734962178 0.4744225697026545
lowerneck -16.508361225861634 -3.0697106092172532 -1.0831032599913266
upperneck 21.225361126424932 -3.922330909653868 0.11193892280612366
head 9.514444713585135 -1.928756814061925 -0.2976762730992364
lclavicle 4.2438471899119634e-16 -7.966094778162198e-16
lhumerus -31.03691872065513 3.5797674884804564 81.26732866900228
lradius 21.615474964393005
lwrist 8.683791512955416
lhand -28.63680327120734 19.67365170639993
lfingers nan
lthumb -2.2388278997431303 49.53754565217755
rclavicle 3.496806295538169e-16 -8.51075263869451e-16
rhumerus -28.244583337283007 -19.91384826356423 -76.52754840484472
rradius 33.060009467756515
rwrist 1.98952733056352
rhand -18.10590200074194 -1.0
rfingers nan
rthumb 8.369025917154378 -8.168257892088201
98
root 1.3132357162122115 17.866168362896744 52.779528030241124 -3.7277708988607348 -1.4264726925951523 -5.140305086849806
lfemur -15.27988045188587 -0.20884820366990486 -14.186573819225675
ltibia 53.32787796040174
lfoot -7.865272610094856 1.760464187289001
ltoes -8.695531240557694
rfemur -5.615068032395558 3.0155350391653846 28.547699873813798
rtibia 27.848938886857077
rfoot -10.020688571438383 -9.32915153947316
rtoes 1.1915468551539297
lowerback -1.0 0.2265744478305312 4.3246147760994536
upperback -0.038770577967060155 1.207036799071202 1.8579980339462516
thorax -5.37847718328554 0.5954502653204061 -0.03402488955441807
lowerneck -16.3589571408329 -3.1515345013457217 -1.1045905706609513
upperneck 21.272031305056867 -4.069498390822009 0.1472142062742784
head 9.530634737082202 -1.9863820312326668 -0.3288633886282878
lclavicle 4.266579376628079e-16 -7.965376261006543e-16
lhumerus -31.52821117648054 4.075558864257458 81.30688013096226
lradius 21.804485341045005
lwrist 8.894816837784644
lhand -28.675746450585514 19.688587967949786
lfingers nan
lthumb -2.2760227957707597 49.526027853053506
rclavicle 3.550602041938569e-16 -8.483260101639796e-16
rhumerus -27.733864668633174 -19.29627895506007 -76.44493106727751
rradius 33.15692004751215
rwrist 1.9353106763326566
rhand -18.095583101725644 -1.0
rfingers nan
rthumb 8.348904795363532 -8.177051635481487
99
root 1.2916634584665698 17.86783117087501 52.388509915794685 -3.787848951054279 -1.0859452588235183 -5.657833468364062
lfemur -17.114750576408426 -0.4571333048961814 -14.177838058629845
ltibia 50.455847988861585
lfoot -7.673573268527307 2.0545264077161507
ltoes -9.65028279815782
rfemur -4.975651049283075 3.1233323317098685 28.850854514819456
rtibia 29.285024100656457
rfoot -7.445243495111244 -8.962054807431922
rtoes 1.7261783544917746
lowerback -1.0 0.3743509674931675 4.668987893677183
upperback -0.0682605939357594 1.4633832935201256 1.8014112450843482
thorax -5.3285412502955 0.7266961652719872 -0.4559037056059495
lowerneck -16.20289638699111 -3.2180846833345633 -1.1681422286287466
upperneck 21.38885948663702 -4.193934889273544 0.1953935721325356
head 9.561232970796222 -2.035132384173849 -0.34239868338318524
lclavicle 4.285180063025242e-16 -7.973653592502746e-16
lhumerus -31.950730991889735 4.494955005289417 81.31505329260453
lradius 22.053358394334282
lwrist 9.142332030024349
lhand -28.681659536237856 19.67475526682089
lfingers nan
lthumb -2.307144234535861 49.45456251961469
rclavicle 3.624327974627694e-16 -8.44525412500663e-16
rhumerus -27.472652906411316 -18.76463453310957 -76.54654575007017
rradius 33.27119602709743
rwrist 1.919856673626823
rhand -18.051390108220062 -1.0
rfingers nan
rthumb 8.35006586882774 -8.166231281362851
